<svg xmlns="http://www.w3.org/2000/svg" width="61" height="32"><path fill="#8e8f99" d="M31.102 15.797a1.066 1.066 0 0 1-.221-.728v.003-1.05c0-.322.073-.567.219-.734s.397-.251.753-.25c.335 0 .572.071.712.214a.87.87 0 0 1 .21.628v.247h-.598v-.25a1.34 1.34 0 0 0-.017-.245.235.235 0 0 0-.085-.145.344.344 0 0 0-.191-.057l-.027.001h.001l-.026-.001a.37.37 0 0 0-.203.061l.001-.001a.285.285 0 0 0-.099.158v.002a1.195 1.195 0 0 0-.024.239v.022-.001 1.275a.647.647 0 0 0 .078.361l-.002-.003a.286.286 0 0 0 .117.086l.002.001a.338.338 0 0 0 .155.02.327.327 0 0 0 .212-.058.26.26 0 0 0 .089-.153v-.002c.012-.069.019-.148.019-.228v-.028.001-.259h.598v.236l.002.062a.961.961 0 0 1-.21.6l.001-.002c-.137.156-.371.234-.716.234s-.604-.083-.752-.256zm2.489.011c-.151-.164-.227-.402-.227-.717v-1.105c0-.312.076-.548.227-.708s.404-.24.758-.239c.352 0 .603.08.754.239.151.16.228.396.228.708v1.105c0 .312-.077.551-.23.716s-.404.247-.752.247-.605-.083-.758-.245zm1.037-.265a.62.62 0 0 0 .072-.327v-1.353l.001-.035a.596.596 0 0 0-.074-.288l.002.003a.29.29 0 0 0-.12-.088l-.002-.001a.316.316 0 0 0-.159-.018h.002c-.012-.002-.026-.002-.041-.002a.34.34 0 0 0-.12.022l.002-.001a.296.296 0 0 0-.123.088v.001a.585.585 0 0 0-.072.321v1.359a.6.6 0 0 0 .072.327.384.384 0 0 0 .126.081.422.422 0 0 0 .311-.001l-.003.001a.384.384 0 0 0 .126-.081v-.007zm1.422-2.472h.644l.484 2.038.495-2.038h.627l.063 2.942H37.9l-.049-2.044-.478 2.044h-.371l-.495-2.052-.046 2.052h-.468l.058-2.942zm3.035 0h1.003c.577 0 .867.279.867.835 0 .533-.304.8-.912.799h-.342v1.307h-.619l.004-2.942zm.856 1.258a.466.466 0 0 0 .341-.094l-.001.001a.476.476 0 0 0 .089-.332l.001-.034a.908.908 0 0 0-.032-.24l.001.006a.231.231 0 0 0-.046-.081.277.277 0 0 0-.077-.059l-.001-.001a.634.634 0 0 0-.243-.048l-.035.001h.002-.24v.879h.24zm1.906-1.258h.665l.682 2.942h-.577l-.135-.678h-.593l-.139.678h-.585l.682-2.942zm.568 1.923-.231-1.235-.232 1.235h.463zm1.33-1.923h.433l.829 1.678v-1.678h.514v2.942h-.412l-.835-1.752v1.752h-.531l.001-2.942zm2.98 1.821-.689-1.816h.581l.421 1.167.395-1.167h.568l-.681 1.816v1.121h-.594v-1.121zM32.057 17.3v.154h-.505v1.195h-.211v-1.195h-.508V17.3h1.224zm1.584 1.349h-.168a.071.071 0 0 1-.041-.013.071.071 0 0 1-.027-.03l-.146-.32h-.701l-.146.32a.084.084 0 0 1-.022.036.075.075 0 0 1-.042.013h-.167l.619-1.349h.216l.626 1.344zm-1.025-.501h.584l-.247-.549a.837.837 0 0 1-.044-.12l-.002-.007-.023.072-.023.057-.245.548zm2.092.368a.664.664 0 0 0 .22-.017l-.005.001a.666.666 0 0 0 .094-.026l-.005.002.083-.033v-.303h-.251a.088.088 0 0 1-.016-.002.053.053 0 0 1-.015-.008.024.024 0 0 1-.009-.011.027.027 0 0 1-.003-.012v-.106h.48v.517a.913.913 0 0 1-.255.109l-.007.001a1.126 1.126 0 0 1-.15.027h-.005a1.686 1.686 0 0 1-.181.009h-.007a.94.94 0 0 1-.311-.053l.007.002a.763.763 0 0 1-.249-.142l.001.001a.664.664 0 0 1-.158-.21l-.002-.004a.663.663 0 0 1-.057-.271V17.969c0-.099.02-.193.057-.278l-.002.005a.624.624 0 0 1 .16-.214.744.744 0 0 1 .242-.138l.005-.002c.106-.035.219-.051.332-.05.058 0 .115.004.172.012a.874.874 0 0 1 .271.087.805.805 0 0 1 .108.071l-.059.084a.05.05 0 0 1-.02.018.064.064 0 0 1-.028.007.074.074 0 0 1-.039-.011.62.62 0 0 1-.064-.034l.004.002a.522.522 0 0 0-.079-.035l-.004-.001a.749.749 0 0 0-.109-.029l-.005-.001a.978.978 0 0 0-.149-.012h-.016a.745.745 0 0 0-.237.039l.005-.002a.525.525 0 0 0-.182.107.448.448 0 0 0-.115.167.626.626 0 0 0 .001.454l-.001-.004a.484.484 0 0 0 .124.17.54.54 0 0 0 .181.107.722.722 0 0 0 .245.027zm1.973-.021h.676v.154h-.883V17.3h.212l-.005 1.195zm1.38.154h-.212V17.3h.212v1.349zm.787-1.343a.11.11 0 0 1 .032.025l.905 1.017-.001-.024.001-.025v.001-1.005h.184v1.355h-.114a.106.106 0 0 1-.04-.008h.001a.12.12 0 0 1-.033-.025l-.904-1.016v1.049h-.177v-1.349h.11c.012 0 .024.002.035.006zm2.681-.006v.148h-.751v.445h.608v.143h-.608v.46h.751v.148h-.968v-1.346h.968zM19.344 8.967l9.401 2.303v8.071l-9.401-2.302V8.966zm-.603-.688v9.152l10.605 2.599v-9.151l-10.605-2.6z"/><path fill="#8e8f99" d="m24.425 24.279-10.607-2.601v-9.151l10.607 2.6v9.153zM18.916 8.863l9.278 2.274-3.945 3.406-9.28-2.276 3.947-3.404zm-.175-.584-4.923 4.247 10.607 2.6 4.921-4.247-10.605-2.6zm6.281 15.485 4.324-3.732-4.325-1.061v4.793z"/></svg>