<svg xmlns="http://www.w3.org/2000/svg" width="61" height="32"><path fill="#8e8f99" d="M21.379 21.954c.089.1.137.224.135.352.004.083-.012.167-.048.244s-.091.145-.16.201a.965.965 0 0 1-.608.162h.003-1.064v-2.23h1.042a.963.963 0 0 1 .581.15l-.004-.002c.068.051.121.115.156.187s.051.151.047.23a.484.484 0 0 1-.121.341.581.581 0 0 1-.313.174l-.004.001a.62.62 0 0 1 .359.191zm-1.248-.337h.445l.033.001c.093 0 .18-.028.252-.076l-.002.001a.278.278 0 0 0 .076-.097l.001-.002a.237.237 0 0 0 .02-.097l-.001-.023v.001l.001-.019a.26.26 0 0 0-.021-.101l.001.002a.263.263 0 0 0-.074-.099.459.459 0 0 0-.255-.076c-.013 0-.025 0-.038.002h.002-.439v.585zm.772.855a.265.265 0 0 0 .081-.101l.001-.002a.247.247 0 0 0 .024-.107l-.001-.018v.001-.016a.25.25 0 0 0-.026-.112l.001.002a.277.277 0 0 0-.083-.102h-.001a.494.494 0 0 0-.273-.082l-.031.001h.001-.468v.613h.473a.515.515 0 0 0 .299-.077zm2.606.441-.58-.872h-.218v.871h-.498v-2.23h.944l.068-.002c.221 0 .426.072.592.194l-.003-.002c.132.121.212.281.224.45s-.042.337-.154.473a.793.793 0 0 1-.45.227l.617.891h-.542zm-.798-1.176h.408c.283 0 .425-.113.425-.338l.001-.018a.316.316 0 0 0-.024-.119l.001.002a.328.328 0 0 0-.081-.115.475.475 0 0 0-.281-.092l-.042.002h.002-.413l.005.679zm3.523.727h-.994l-.176.449h-.523l.913-2.205h.565l.909 2.205h-.523l-.172-.449zm-.133-.338-.363-.941-.363.941h.726zm3.544.787h-.495l-1.11-1.516v1.516h-.494v-2.23h.494l1.109 1.525v-1.525h.495v2.23zm2.824-.534c-.108.172-.26.307-.441.391l-.006.003a1.589 1.589 0 0 1-.696.14h-.881v-2.23h.881l.041-.001c.237 0 .462.051.665.142l-.01-.004c.189.086.345.222.448.389a1.19 1.19 0 0 1-.003 1.176l.003-.006zm-.566-.054a.77.77 0 0 0 .219-.532.77.77 0 0 0-.219-.532.92.92 0 0 0-.623-.19h.003-.344v1.444h.344a.916.916 0 0 0 .621-.191l-.002.002zM26.544 8.279s6.388 2.171 6.252 5.313v5.314s-6.383-2.172-6.251-5.314l-.003-5.313zm11.943 9.383a9.366 9.366 0 0 1 4.059-1.347v-1.664c-1.679.583-3.102 1.638-4.059 3.01z"/><path fill="#8e8f99" d="M37.762 18.163c.987-1.79 2.699-3.171 4.783-3.86V9.51s-9.097 3.093-8.905 7.567v7.566s.405-.138 1.043-.398c0-.242 0-.486.029-.731.188-2.077 1.285-4.002 3.049-5.351z"/><path fill="#8e8f99" d="M36.897 20.973a7.108 7.108 0 0 1 .319-1.549c-1.099 1.165-1.764 2.611-1.903 4.134-.013.144-.02.287-.024.436a25.839 25.839 0 0 0 1.901-.902l-.151.072a7.12 7.12 0 0 1-.139-2.219l-.002.028zm.362.028a6.8 6.8 0 0 0 .12 2.028l-.008-.044c2.485-1.339 5.278-3.407 5.171-5.908v-.218c-1.776.179-3.437.878-4.729 1.989a6.665 6.665 0 0 0-.552 2.126l-.002.027z"/></svg>