<svg xmlns="http://www.w3.org/2000/svg" width="61" height="32"><path fill="#8e8f99" d="M25.022 23.717c.006 0 .012.001.017.004l.015.008.08.076a.676.676 0 0 1-.221.142l-.005.002a.89.89 0 0 1-.32.051h-.016a.876.876 0 0 1-.291-.05l.006.002a.664.664 0 0 1-.227-.136.607.607 0 0 1-.145-.205l-.002-.004a.686.686 0 0 1-.051-.261v-.017c0-.094.02-.184.057-.265l-.002.004a.626.626 0 0 1 .155-.209.726.726 0 0 1 .236-.135l.005-.002a.958.958 0 0 1 .3-.048h.011-.001a.85.85 0 0 1 .288.044c.08.03.153.071.216.121l-.067.081a.046.046 0 0 1-.017.014.046.046 0 0 1-.023.006h-.004a.066.066 0 0 1-.029-.009l-.036-.021-.05-.027a.573.573 0 0 0-.155-.048h-.003a.748.748 0 0 0-.11-.008h-.011.001-.008a.668.668 0 0 0-.22.037l.005-.001a.508.508 0 0 0-.175.102h.001a.463.463 0 0 0-.113.161.526.526 0 0 0-.041.206v.015a.53.53 0 0 0 .043.211l-.001-.004a.46.46 0 0 0 .275.259l.003.001a.6.6 0 0 0 .207.034.846.846 0 0 0 .123-.007.486.486 0 0 0 .266-.111l-.001.001a.07.07 0 0 1 .038-.014zm2.318-.379a.65.65 0 0 1-.054.267.584.584 0 0 1-.151.207l-.001.001a.713.713 0 0 1-.237.136.985.985 0 0 1-.617-.002l.007.002a.712.712 0 0 1-.237-.137l.001.001a.61.61 0 0 1-.151-.205l-.002-.004a.68.68 0 0 1 .002-.539l-.002.004a.659.659 0 0 1 .152-.21.698.698 0 0 1 .231-.129l.005-.001a.978.978 0 0 1 .61 0c.089.031.17.077.237.136a.612.612 0 0 1 .206.459v.017-.001zm-.211 0a.552.552 0 0 0-.038-.215.443.443 0 0 0-.274-.261l-.003-.001a.712.712 0 0 0-.449.002l.005-.001a.477.477 0 0 0-.17.102.423.423 0 0 0-.107.157l-.001.003a.618.618 0 0 0 .002.434l-.001-.004a.449.449 0 0 0 .278.26c.143.046.3.046.444 0a.458.458 0 0 0 .278-.261.549.549 0 0 0 .038-.215zm1.794.225.021.048.023-.048c.009-.018.017-.034.027-.049l-.001.002.513-.796c.01-.014.019-.023.029-.025s.022-.004.034-.004h.16v1.296h-.18v-.993l-.001-.022.001-.023v.001l-.516.808a.065.065 0 0 1-.03.029.089.089 0 0 1-.043.011H28.929a.093.093 0 0 1-.044-.011.076.076 0 0 1-.03-.029l-.531-.813v1.04h-.174v-1.293h.158c.013 0 .025.002.036.005h-.001a.06.06 0 0 1 .028.024l.524.797c.011.015.019.03.027.047zm1.93-.064v.485h-.201V22.69h.447a.994.994 0 0 1 .25.028.518.518 0 0 1 .177.08.326.326 0 0 1 .099.125l.001.002a.382.382 0 0 1 .034.165v.006a.357.357 0 0 1-.145.288l-.001.001a.51.51 0 0 1-.175.085l-.004.001a.852.852 0 0 1-.226.03h-.016l-.242-.004zm0-.139h.243a.573.573 0 0 0 .155-.02.337.337 0 0 0 .114-.056l-.001.001a.245.245 0 0 0 .092-.192v-.016a.227.227 0 0 0-.021-.094l.001.001a.253.253 0 0 0-.07-.088.436.436 0 0 0-.238-.071l-.033.001h.001-.243v.533zm2.698.626h-.162a.079.079 0 0 1-.041-.012.09.09 0 0 1-.026-.029l-.136-.313H32.5l-.141.313a.07.07 0 0 1-.025.029.078.078 0 0 1-.043.013h-.16l.602-1.296h.209l.61 1.296zm-.994-.481h.566l-.239-.527a.78.78 0 0 1-.044-.116l-.002-.006-.023.068c-.007.021-.015.039-.022.055l-.237.527zm1.861-.809a.1.1 0 0 1 .03.023l.879.977V22.69h.18v1.296H35.403a.096.096 0 0 1-.038-.008h.001a.128.128 0 0 1-.032-.024l-.877-.976.001.022-.001.023v-.001.963h-.18v-1.296h.109c.012 0 .023.002.034.006h-.001zm2.567.775v.515h-.201v-.515l-.555-.78h.185c.014 0 .028.004.039.011.011.008.02.018.027.029l.347.504a.618.618 0 0 1 .06.111l.002.004.026-.056a.5.5 0 0 1 .034-.059l.343-.507a.096.096 0 0 1 .026-.027.068.068 0 0 1 .04-.013h.185l-.556.784zm-8.162-2.956c.087.009.176.017.265.024 1.354-.517 2.5-1.365 3.294-2.436s1.201-2.318 1.169-3.585l-1.492-1.275c.303 1.349.161 2.744-.41 4.029s-1.55 2.407-2.826 3.244z"/><path fill="#8e8f99" d="m28.29 20.456.04.007c1.364-.833 2.404-1.997 2.985-3.341s.677-2.805.276-4.196l-2.126-1.816c.86 1.493 1.206 3.164.998 4.818s-.961 3.225-2.173 4.528zm7.21-4.441c-.361 1.393-1.239 2.649-2.501 3.582-.344.258-.733.5-1.143.708l-.045.021c1.028-.258 1.974-.715 2.763-1.335s1.401-1.386 1.789-2.24l-.862-.736z"/><path fill="#8e8f99" d="m35.162 15.81-1.228-1.049c-.024 1.196-.421 2.364-1.152 3.384s-1.768 1.854-3.004 2.416h.006c.275 0 .551-.014.824-.042 1.155-.403 2.175-1.044 2.97-1.865s1.339-1.799 1.584-2.844zm-6.694-5.466-1.464-1.253c-1.309.432-2.435 1.192-3.231 2.18s-1.223 2.159-1.227 3.357c.005 1.325.527 2.611 1.484 3.654s2.293 1.784 3.797 2.105c1.343-1.399 2.13-3.126 2.245-4.932s-.447-3.596-1.604-5.111zm10.077 5.273c-.005-1.572-.739-3.079-2.04-4.19s-3.064-1.738-4.904-1.743h-.016c-.883 0-1.733.145-2.526.412l.056-.016 8.967 7.661a5.042 5.042 0 0 0 .464-2.123z"/></svg>