<svg xmlns="http://www.w3.org/2000/svg" width="61" height="32"><path fill="#8e8f99" d="m25.455 8.364 2.548 2.428-4.73-.002v11.778h12.364v-4.503l2.545 2.425V8.365H25.455zm10.069 9.415-7.225-6.884h7.225v6.884zm-2.243 3.065h-8.052v-7.921h.569v7.385h7.483v.537zm-6.446 3.906-.3-.617h-.248l.435.817v.476h.224v-.476l.435-.817h-.247l-.3.617zm1.106-.618h.053l.488 1.293h-.234l-.105-.303h-.5l-.104.303h-.233l.487-1.293h.149zm-.237.814h.379l-.189-.548-.189.548zm1.562-.215-.022-.028-.006-.008a.635.635 0 0 1-.076-.123l-.002-.004a.355.355 0 0 1 .014-.302.267.267 0 0 1 .117-.111l.002-.001a.377.377 0 0 1 .178-.04h.009c.059 0 .114.015.163.041l-.002-.001a.278.278 0 0 1 .126.359l.001-.002a.336.336 0 0 1-.062.093.647.647 0 0 1-.088.078l-.002.001-.09.065.256.302a.506.506 0 0 0 .056-.232v-.01h.185a.784.784 0 0 1-.019.178.546.546 0 0 1-.096.215l.001-.002.189.224h-.247l-.075-.088a.523.523 0 0 1-.129.072l-.003.001a.584.584 0 0 1-.196.033h-.005a.499.499 0 0 1-.223-.047.36.36 0 0 1-.145-.128l-.001-.001a.349.349 0 0 1-.051-.183V25.069c0-.048.012-.093.034-.133l-.001.001a.427.427 0 0 1 .09-.112c.035-.032.075-.064.12-.095zm.106.13-.027.019a.319.319 0 0 0-.069.073l-.001.001a.212.212 0 0 0-.011.22l-.001-.001a.185.185 0 0 0 .071.073h.001a.231.231 0 0 0 .109.027h.008a.322.322 0 0 0 .145-.034l-.002.001a.389.389 0 0 0 .066-.041l-.001.001-.287-.338zm.051-.236.079-.053a.273.273 0 0 0 .079-.072l.001-.001a.16.16 0 0 0 .024-.085v-.006a.13.13 0 0 0-.129-.125h-.012a.13.13 0 0 0-.119.076v.001a.177.177 0 0 0-.015.073c0 .031.008.06.021.086v-.001a.473.473 0 0 0 .056.088l.015.019zm2.262.379h-.222a.407.407 0 0 1-.042.145l.001-.002a.197.197 0 0 1-.089.087l-.001.001a.334.334 0 0 1-.14.03h-.014.001-.007a.276.276 0 0 1-.128-.032l.001.001a.265.265 0 0 1-.092-.087l-.001-.001a.436.436 0 0 1-.053-.133v-.003a.826.826 0 0 1-.017-.171v-.116c0-.069.006-.13.019-.183s.032-.099.057-.136a.255.255 0 0 1 .093-.083l.001-.001a.288.288 0 0 1 .126-.028h.008c.062 0 .112.011.151.032s.067.051.087.091c.02.039.033.087.039.143h.222a.556.556 0 0 0-.074-.232l.001.003a.414.414 0 0 0-.163-.156l-.002-.001a.541.541 0 0 0-.244-.057h-.018.001c-.081 0-.154.014-.219.043s-.12.069-.166.124a.543.543 0 0 0-.105.188l-.001.004a.825.825 0 0 0-.036.252v.108c0 .093.012.177.036.252s.059.139.105.193a.476.476 0 0 0 .38.166c.104 0 .193-.019.265-.057s.129-.09.169-.156a.514.514 0 0 0 .071-.226zm1.233-.19v-.071a.815.815 0 0 0-.039-.262.576.576 0 0 0-.11-.199l.001.001a.465.465 0 0 0-.167-.124l-.003-.001a.53.53 0 0 0-.218-.044.526.526 0 0 0-.217.044c-.065.028-.122.07-.17.125s-.084.121-.11.198a.799.799 0 0 0-.039.25v.012-.001.071c0 .098.013.185.039.263a.615.615 0 0 0 .112.199l-.001-.001c.048.055.105.096.17.125s.138.043.217.043a.484.484 0 0 0 .387-.168.557.557 0 0 0 .109-.198.831.831 0 0 0 .038-.251v-.013.001zm-.223-.073v.073a.795.795 0 0 1-.021.192.418.418 0 0 1-.061.143l.001-.002a.27.27 0 0 1-.096.085l-.001.001a.291.291 0 0 1-.126.028h-.012a.29.29 0 0 1-.128-.029l.002.001a.291.291 0 0 1-.099-.085l-.001-.001a.423.423 0 0 1-.062-.138l-.001-.003a.744.744 0 0 1-.022-.182v-.011.001-.073c0-.072.007-.136.021-.191s.035-.102.061-.139a.253.253 0 0 1 .097-.084l.002-.001a.276.276 0 0 1 .127-.029h.005c.049 0 .093.01.132.029s.072.047.098.085a.386.386 0 0 1 .061.139.735.735 0 0 1 .021.191z"/></svg>