<svg xmlns="http://www.w3.org/2000/svg" width="61" height="32"><path fill="#8e8f99" d="M29.86 7.976h-.05a4.587 4.587 0 0 0-.223-.008h-.171c-.144 0-.292.004-.438.011l-.017-.001-.017.001h.001a10.258 10.258 0 0 0-3.885 1.002l.061-.027-.157.076v8.052l.368-.125c.323-.111.667-.211 1.023-.303.88-.235 1.892-.377 2.935-.391h.008v1.058a9.083 9.083 0 0 0-.408.012l.021-.001h-.031c-.827.046-1.601.171-2.347.366l.082-.018a11.464 11.464 0 0 0-2.757 1.082l.059-.03V8.406a10.605 10.605 0 0 1 2.756-1.135l.075-.016c.8-.215 1.718-.34 2.665-.344h.158c.186.005.367.013.537.026.448.032.893.103 1.329.212V8.19a7.83 7.83 0 0 0-1.261-.193l-.027-.002-.027-.002a3.269 3.269 0 0 0-.26-.016h-.003zm1.832 1.064c.231.018.47.026.712.026a11.471 11.471 0 0 0 2.885-.378l-.08.018a11.522 11.522 0 0 0 2.757-1.082l-.06.03v10.142c-.815.484-1.758.879-2.756 1.135l-.075.016c-.8.214-1.718.339-2.666.343h-.068c-.695 0-1.37-.087-2.014-.251l.056.012V8.843a8.518 8.518 0 0 0 1.309.196zm5.161.079-.368.124c-.223.082-.564.187-.91.28l-.113.026c-.916.245-1.969.388-3.054.392h-.002c-.24 0-.461-.007-.674-.02l-.293-.019v8.283l.252.022c.233.021.475.031.717.031a9.8 9.8 0 0 0 2.476-.327l-.068.015a9.975 9.975 0 0 0 1.941-.703l-.06.026.157-.076V9.119zM24.632 22.259a.542.542 0 0 0-.39-.166h-.02.001-.008a.596.596 0 0 0-.232.046l.004-.001a.534.534 0 0 0-.301.303l-.001.004a.595.595 0 0 0-.042.228v1.38a.64.64 0 0 0 .054.283.489.489 0 0 0 .327.283.758.758 0 0 0 .206.028.583.583 0 0 0 .572-.581v-.154h-.361v.131a.324.324 0 0 1-.022.117l.001-.002a.232.232 0 0 1-.052.078.253.253 0 0 1-.151.053l-.021.001a.182.182 0 0 1-.148-.075.328.328 0 0 1-.048-.171v-.015.001-1.287a.445.445 0 0 1 .044-.206.185.185 0 0 1 .155-.085l.022.001h-.001.007c.063 0 .119.03.154.077.037.049.06.11.06.177v.127h.357v-.147a.637.637 0 0 0-.046-.24l.002.004a.56.56 0 0 0-.121-.194zm2.142-.015a.635.635 0 0 0-.41-.152.606.606 0 0 0-.544.341l-.001.004a.643.643 0 0 0-.053.267v1.323a.649.649 0 0 0 .053.271.54.54 0 0 0 .14.185c.055.051.12.091.191.116a.618.618 0 0 0 .626-.117l-.001.001a.576.576 0 0 0 .188-.456v-1.335a.639.639 0 0 0-.054-.259l.002.004a.586.586 0 0 0-.136-.193zm-.168 1.783.001.02a.24.24 0 0 1-.072.171.266.266 0 0 1-.34 0 .236.236 0 0 1-.073-.17l.001-.022v.001-1.323l-.001-.02a.24.24 0 0 1 .072-.171.266.266 0 0 1 .34 0 .236.236 0 0 1 .073.171l-.001.021v-.001 1.324zm2.982.591v-2.505h-.347l-.456 1.326h-.006l-.459-1.326h-.343v2.505h.358v-1.524h.006l.351 1.077h.179l.353-1.077h.007v1.524h.358zm2.033-2.329a.498.498 0 0 0-.202-.137.769.769 0 0 0-.246-.039h-.545v2.505h.357v-.979h.184l.03.001a.653.653 0 0 0 .296-.071l-.004.002a.528.528 0 0 0 .195-.189l.001-.002a.614.614 0 0 0 .082-.218c.012-.079.019-.17.019-.262v-.024.001a1.39 1.39 0 0 0-.035-.358.527.527 0 0 0-.132-.23zm-.184.763a.318.318 0 0 1-.034.132l.001-.002a.201.201 0 0 1-.091.087l-.001.001a.366.366 0 0 1-.15.032h-.019.001-.163v-.852h.201a.34.34 0 0 1 .146.033l-.002-.001a.198.198 0 0 1 .083.091l.001.001a.35.35 0 0 1 .031.139v.167c0 .058.004.119 0 .172h-.004zm1.875-.939h-.293l-.552 2.505h.357l.105-.538h.487l.105.538h.357l-.565-2.505zm-.329 1.626.176-.908h.007l.175.908h-.357zm2.635-.117h-.007l-.539-1.509h-.343v2.505h.357v-1.507h.007l.545 1.506h.336v-2.505h-.357v1.509zm2.181-1.509-.287.996h-.007l-.287-.996h-.378l.49 1.447v1.059h.357V23.56l.49-1.446h-.378zm-14.163 3.212h.172v.483h.117v-.483h.171v-.099h-.46v.099zm1.447-.099-.225.582h.124l.048-.132h.232l.049.132h.127l-.231-.582h-.124zm-.019.352.079-.216.079.216h-.158zm1.448.015h.135v.075a.223.223 0 0 1-.138.049h-.008a.146.146 0 0 1-.115-.056.244.244 0 0 1-.043-.139v-.014.001c0-.129.056-.194.167-.194l.013-.001c.057 0 .105.039.119.093v.001l.115-.022c-.025-.114-.107-.171-.247-.171h-.008a.287.287 0 0 0-.195.075.282.282 0 0 0-.084.202l.001.023v-.001.014c0 .078.028.15.075.205a.28.28 0 0 0 .203.086l.019-.001h-.001.01a.347.347 0 0 0 .237-.093v-.229h-.252v.098zm1.46-.367h-.118v.582h.407v-.099h-.289v-.483zm1.234 0h-.117v.582h.117v-.582zm1.207.389-.238-.388h-.114v.582h.109v-.38l.234.38h.117v-.582h-.108v.389zm1.091-.063h.29v-.099h-.29v-.127h.312v-.099h-.429v.582h.441v-.099h-.324v-.157zm2.646-.096h-.229v-.229h-.116v.581h.116v-.255h.229v.255h.117v-.582h-.117v.229zm1.097.096h.291v-.099h-.291v-.127h.313v-.099h-.429v.582h.441v-.099h-.324v-.157zm1.489 0c.101-.016.153-.069.153-.162l.001-.017a.138.138 0 0 0-.058-.112.325.325 0 0 0-.147-.035l-.024.001h.001-.247v.581h.117v-.243h.032a.15.15 0 0 1 .064.014h-.001a.127.127 0 0 1 .041.042v.001l.127.185h.14l-.071-.113a.405.405 0 0 0-.127-.139l-.001-.001zm-.118-.081h-.086v-.146h.092l.025-.001c.034 0 .066.005.096.015l-.002-.001a.076.076 0 0 1 .025.057.074.074 0 0 1-.009.036.076.076 0 0 1-.022.025.334.334 0 0 1-.097.015l-.023-.001h.001zm1.24.081h.289v-.099h-.289v-.127h.313v-.099h-.431v.582h.441v-.099h-.324v-.157z"/></svg>